<svg xmlns="http://www.w3.org/2000/svg" viewBox="0 170 1360 660" role="img" aria-labelledby="title desc">
  <title id="title">Cjei Work Hub</title>
  <desc id="desc">Cjei Work Hub logo with circuit icon and productivity tagline.</desc>
  <defs>
    <linearGradient id="blueGrad" x1="0" x2="1" y1="0" y2="1">
      <stop offset="0" stop-color="#0f8cff"/>
      <stop offset="1" stop-color="#0967d8"/>
    </linearGradient>
    <linearGradient id="greenGrad" x1="0" x2="1" y1="0" y2="1">
      <stop offset="0" stop-color="#74d83f"/>
      <stop offset="1" stop-color="#38b924"/>
    </linearGradient>
    <linearGradient id="cyanGrad" x1="0" x2="1" y1="0" y2="1">
      <stop offset="0" stop-color="#19bdf2"/>
      <stop offset="1" stop-color="#079bd8"/>
    </linearGradient>
  </defs>

  <rect width="1254" height="1254" fill="#fff" fill-opacity="0"/>

  <g transform="translate(0 26)">
    <g transform="translate(423 204)" fill="none" stroke-linecap="round" stroke-linejoin="round">
      <path d="M204 374c-93-6-169-76-185-166" stroke="url(#blueGrad)" stroke-width="15"/>
      <path d="M30 135c30-71 100-121 182-121 42 0 80 13 112 35" stroke="url(#blueGrad)" stroke-width="15"/>
      <path d="M215 374c90-5 163-70 183-155" stroke="url(#greenGrad)" stroke-width="15"/>
      <path d="M390 153v41" stroke="url(#greenGrad)" stroke-width="15"/>
      <path d="M35 197c12 54 46 100 92 129" stroke="url(#blueGrad)" stroke-width="15"/>
      <path d="M110 82c38-30 87-47 140-43" stroke="url(#blueGrad)" stroke-width="15"/>
      <path d="M250 374c39-2 76-15 107-36" stroke="url(#blueGrad)" stroke-width="15"/>
      <path d="M391 78c0 36-23 61-61 61h-44" stroke="url(#greenGrad)" stroke-width="15"/>
      <path d="M283 171h91" stroke="url(#cyanGrad)" stroke-width="15"/>
      <path d="M369 112h39" stroke="url(#cyanGrad)" stroke-width="15"/>
      <path d="M69 255l73-73" stroke="url(#blueGrad)" stroke-width="15"/>
      <path d="M120 120 38 153" stroke="url(#blueGrad)" stroke-width="15"/>
      <path d="M244 58h91" stroke="url(#cyanGrad)" stroke-width="15"/>
      <path d="M63 28c37 0 37-17 74-17" stroke="url(#blueGrad)" stroke-width="15"/>
      <circle cx="28" cy="28" r="20" stroke="url(#blueGrad)" stroke-width="15"/>
      <circle cx="345" cy="26" r="20" stroke="url(#cyanGrad)" stroke-width="15"/>
      <circle cx="407" cy="26" r="20" stroke="url(#greenGrad)" stroke-width="15"/>
      <circle cx="431" cy="112" r="20" stroke="url(#cyanGrad)" stroke-width="15"/>
      <circle cx="144" cy="181" r="20" stroke="url(#blueGrad)" stroke-width="15"/>
      <circle cx="108" cy="223" r="20" stroke="url(#blueGrad)" stroke-width="15"/>
      <circle cx="400" cy="26" r="7" fill="#65cf37" stroke="none"/>
      <circle cx="284" cy="112" r="7" fill="#16a9e6" stroke="none"/>
      <circle cx="263" cy="80" r="7" fill="#65cf37" stroke="none"/>
      <rect x="83" y="119" width="42" height="42" rx="7" fill="url(#greenGrad)" stroke="none"/>
      <path d="m95 139 14 14 27-32" stroke="#fff" stroke-width="9"/>
      <path d="M221 179v52h20v-52" stroke="url(#blueGrad)" stroke-width="9"/>
      <path d="M251 150v81h20v-81" stroke="url(#blueGrad)" stroke-width="9"/>
      <path d="M281 121v110h20v-110" stroke="url(#blueGrad)" stroke-width="9"/>
      <path d="M203 230h113" stroke="#078bdd" stroke-width="9"/>
      <path d="M182 214v-50c0-46 69-46 69 0 0 22-18 30-28 45v31h-39v-26z" stroke="url(#cyanGrad)" stroke-width="10"/>
      <path d="M196 252h43m-37 17h31m-25 17h19" stroke="url(#blueGrad)" stroke-width="11"/>
      <path d="M213 286c10 13 27 13 37 0" stroke="url(#blueGrad)" stroke-width="10"/>
      <path d="m218 72 11 31 31 11-31 11-11 31-11-31-31-11 31-11z" fill="#ffb320" stroke="none"/>
      <path d="M213 158h27c10 0 18-8 18-18v-12" stroke="url(#cyanGrad)" stroke-width="10"/>
      <circle cx="213" cy="158" r="8" fill="#079bd8" stroke="none"/>
      <circle cx="248" cy="182" r="10" fill="#079bd8" stroke="none"/>
    </g>

    <g transform="translate(78 648)">
      <text x="0" y="0" font-family="Orbitron, Eurostile, 'Segoe UI', Arial, sans-serif" font-size="150" font-weight="700" letter-spacing="0" fill="#0b82f0">Cjei</text>
      <text x="356" y="0" font-family="Orbitron, Eurostile, 'Segoe UI', Arial, sans-serif" font-size="150" font-weight="600" letter-spacing="0" fill="#2f333b">Work Hub</text>
    </g>

    <g transform="translate(82 718)" fill="none" stroke-linecap="round">
      <path d="M0 0h374" stroke="#a9a9a9" stroke-width="3"/>
      <path d="M392 0h112" stroke="#0f8cff" stroke-width="9"/>
      <circle cx="530" cy="0" r="10" fill="#0f8cff" stroke="none"/>
      <circle cx="555" cy="0" r="10" fill="#51c836" stroke="none"/>
      <path d="M580 0h112" stroke="#51c836" stroke-width="9"/>
      <path d="M710 0h380" stroke="#a9a9a9" stroke-width="3"/>
    </g>

    <text x="627" y="802" text-anchor="middle" font-family="'Segoe UI', Arial, sans-serif" font-size="38" font-weight="400" fill="#343840">
      Better Productivity <tspan fill="#0f8cff">•</tspan> Learning Resources <tspan fill="#51c836">•</tspan> Connect &amp; Collaborate
    </text>
  </g>
</svg>
